<?xml version="1.0" encoding="UTF-8"?><svg xmlns="http://www.w3.org/2000/svg" xmlns:xlink="http://www.w3.org/1999/xlink" fill-opacity="1" color-rendering="auto" color-interpolation="auto" text-rendering="auto" stroke="black" stroke-linecap="square" width="587" stroke-miterlimit="10" shape-rendering="auto" stroke-opacity="1" fill="black" stroke-dasharray="none" font-weight="normal" stroke-width="1" height="649" font-family="'Dialog'" font-style="normal" stroke-linejoin="miter" font-size="12px" stroke-dashoffset="0" image-rendering="auto">
  <!--Generated by ySVG 2.5-->
  <defs id="genericDefs"/>
  <g>
    <defs id="defs1">
      <linearGradient x1="67.6955" gradientUnits="userSpaceOnUse" x2="99.824" y1="293.7422" y2="293.7422" id="linearGradient1" spreadMethod="reflect">
        <stop stop-opacity="1" stop-color="rgb(255,204,0)" offset="0%"/>
        <stop stop-opacity="1" stop-color="green" offset="100%"/>
      </linearGradient>
      <clipPath clipPathUnits="userSpaceOnUse" id="clipPath1">
        <path d="M0 0 L587 0 L587 649 L0 649 L0 0 Z"/>
      </clipPath>
      <clipPath clipPathUnits="userSpaceOnUse" id="clipPath2">
        <path d="M-14 -15 L573 -15 L573 634 L-14 634 L-14 -15 Z"/>
      </clipPath>
    </defs>
    <g fill="white" text-rendering="geometricPrecision" shape-rendering="geometricPrecision" transform="translate(14,15)" stroke="white">
      <rect x="-14" width="587" height="649" y="-15" clip-path="url(#clipPath2)" stroke="none"/>
    </g>
    <g fill="rgb(245,245,245)" text-rendering="geometricPrecision" shape-rendering="geometricPrecision" transform="matrix(1,0,0,1,14,15)" stroke="rgb(245,245,245)">
      <rect x="123.5141" y="378.625" clip-path="url(#clipPath2)" width="434.2143" rx="4" ry="4" height="240.25" stroke="none"/>
      <rect x="123.5141" y="378.625" clip-path="url(#clipPath2)" fill="rgb(235,235,235)" width="434.2143" height="21.4609" stroke="none"/>
    </g>
    <g font-size="15px" stroke-linecap="butt" transform="matrix(1,0,0,1,14,15)" text-rendering="geometricPrecision" font-family="sans-serif" shape-rendering="geometricPrecision" stroke-miterlimit="1.45">
      <text x="460.5795" xml:space="preserve" y="394.5483" clip-path="url(#clipPath2)" stroke="none">Raspberry PI</text>
      <rect x="123.5141" y="378.625" clip-path="url(#clipPath2)" fill="none" width="434.2143" stroke-dasharray="6,2" rx="4" ry="4" height="240.25"/>
    </g>
    <g fill="rgb(255,204,0)" text-rendering="geometricPrecision" shape-rendering="geometricPrecision" transform="matrix(1,0,0,1,14,15)" stroke="rgb(255,204,0)">
      <path d="M138.5142 425.0273 L251.5396 425.0273 L264.098 455.0273 L151.0724 455.0273 Z" fill-rule="evenodd" clip-path="url(#clipPath2)" stroke="none"/>
    </g>
    <g text-rendering="geometricPrecision" stroke-miterlimit="1.45" shape-rendering="geometricPrecision" transform="matrix(1,0,0,1,14,15)" stroke-linecap="butt">
      <path fill="none" d="M138.5142 425.0273 L251.5396 425.0273 L264.098 455.0273 L151.0724 455.0273 Z" fill-rule="evenodd" clip-path="url(#clipPath2)"/>
      <text x="166.7066" xml:space="preserve" y="444.1816" clip-path="url(#clipPath2)" font-family="sans-serif" stroke="none">MQTTClient</text>
    </g>
    <g fill="rgb(255,204,0)" text-rendering="geometricPrecision" shape-rendering="geometricPrecision" transform="matrix(1,0,0,1,14,15)" stroke="rgb(255,204,0)">
      <ellipse rx="34.5312" ry="32.9688" clip-path="url(#clipPath2)" cx="351.2887" cy="570.9062" stroke="none"/>
    </g>
    <g text-rendering="geometricPrecision" stroke-miterlimit="1.45" shape-rendering="geometricPrecision" transform="matrix(1,0,0,1,14,15)" stroke-linecap="butt">
      <ellipse rx="34.5312" fill="none" ry="32.9688" clip-path="url(#clipPath2)" cx="351.2887" cy="570.9062"/>
      <text x="322.4577" xml:space="preserve" y="575.0605" clip-path="url(#clipPath2)" font-family="sans-serif" stroke="none">PiCamera</text>
    </g>
    <g fill="rgb(255,204,0)" text-rendering="geometricPrecision" shape-rendering="geometricPrecision" transform="matrix(1,0,0,1,14,15)" stroke="rgb(255,204,0)">
      <path d="M350.249 440.0273 L397.5316 415.086 L444.8142 440.0273 L397.5316 464.9688 Z" fill-rule="evenodd" clip-path="url(#clipPath2)" stroke="none"/>
    </g>
    <g text-rendering="geometricPrecision" stroke-miterlimit="1.45" shape-rendering="geometricPrecision" transform="matrix(1,0,0,1,14,15)" stroke-linecap="butt">
      <path fill="none" d="M350.249 440.0273 L397.5316 415.086 L444.8142 440.0273 L397.5316 464.9688 Z" fill-rule="evenodd" clip-path="url(#clipPath2)"/>
      <text x="364.3851" xml:space="preserve" y="444.1816" clip-path="url(#clipPath2)" font-family="sans-serif" stroke="none">PAN &amp; TILT</text>
      <path fill="none" d="M201.3062 455.0273 L201.3062 522.9375 L334.0231 522.9375 L334.0231 534.3438" clip-path="url(#clipPath2)"/>
      <path d="M334.0231 542.3438 L339.0231 530.3438 L334.0231 533.3438 L329.0231 530.3438 Z" clip-path="url(#clipPath2)" stroke="none"/>
      <text x="163.9937" xml:space="preserve" y="508.1074" clip-path="url(#clipPath2)" font-family="sans-serif" stroke="none">Take Picture</text>
      <path fill="none" d="M265.8621 440.0273 L342.2039 440.0273" clip-path="url(#clipPath2)"/>
      <path d="M257.8621 440.0273 L269.8621 445.0273 L266.8621 440.0273 L269.8621 435.0273 Z" clip-path="url(#clipPath2)" stroke="none"/>
      <path d="M350.2039 440.0273 L338.2039 435.0273 L341.2039 440.0273 L338.2039 445.0273 Z" clip-path="url(#clipPath2)" stroke="none"/>
      <text x="276.0985" xml:space="preserve" y="444.1816" clip-path="url(#clipPath2)" font-family="sans-serif" stroke="none">Position</text>
    </g>
    <g fill="rgb(245,245,245)" text-rendering="geometricPrecision" shape-rendering="geometricPrecision" transform="matrix(1,0,0,1,14,15)" stroke="rgb(245,245,245)">
      <rect x="36.6312" y="134.4297" clip-path="url(#clipPath2)" width="503.7365" rx="4" ry="4" height="224.1953" stroke="none"/>
      <rect x="36.6312" y="134.4297" clip-path="url(#clipPath2)" fill="rgb(235,235,235)" width="503.7365" height="21.4609" stroke="none"/>
    </g>
    <g font-size="15px" stroke-linecap="butt" transform="matrix(1,0,0,1,14,15)" text-rendering="geometricPrecision" font-family="sans-serif" shape-rendering="geometricPrecision" stroke-miterlimit="1.45">
      <text x="456.1387" xml:space="preserve" y="150.353" clip-path="url(#clipPath2)" stroke="none">AWS Cloud</text>
      <rect x="36.6312" y="134.4297" clip-path="url(#clipPath2)" fill="none" width="503.7365" stroke-dasharray="6,2" rx="4" ry="4" height="224.1953"/>
    </g>
    <g fill="url(#linearGradient1)" text-rendering="geometricPrecision" shape-rendering="geometricPrecision" transform="matrix(1,0,0,1,14,15)" stroke="url(#linearGradient1)">
      <rect x="51.6313" width="48.1927" height="49.8828" y="293.7422" clip-path="url(#clipPath2)" stroke="none"/>
    </g>
    <g text-rendering="geometricPrecision" stroke-miterlimit="1.45" shape-rendering="geometricPrecision" transform="matrix(1,0,0,1,14,15)" stroke-linecap="butt">
      <rect fill="none" x="51.6313" width="48.1927" height="49.8828" y="293.7422" clip-path="url(#clipPath2)"/>
      <text x="68.6261" font-size="24px" y="326.9922" clip-path="url(#clipPath2)" font-family="sans-serif" stroke="none" xml:space="preserve">λ</text>
      <text x="56.0829" font-size="7px" y="335.9741" clip-path="url(#clipPath2)" font-family="sans-serif" stroke="none" xml:space="preserve">SendToPub</text>
    </g>
    <g fill="rgb(255,204,0)" text-rendering="geometricPrecision" shape-rendering="geometricPrecision" transform="matrix(1,0,0,1,14,15)" stroke="rgb(255,204,0)">
      <rect x="145.8138" width="48.1927" height="49.8828" y="170.8906" clip-path="url(#clipPath2)" stroke="none"/>
    </g>
    <g text-rendering="geometricPrecision" stroke-miterlimit="1.45" shape-rendering="geometricPrecision" transform="matrix(1,0,0,1,14,15)" stroke-linecap="butt">
      <rect fill="none" x="145.8138" width="48.1927" height="49.8828" y="170.8906" clip-path="url(#clipPath2)"/>
      <text x="159.7529" xml:space="preserve" y="199.9863" clip-path="url(#clipPath2)" font-family="sans-serif" stroke="none">IOT</text>
    </g>
    <g fill="rgb(255,204,0)" text-rendering="geometricPrecision" shape-rendering="geometricPrecision" transform="matrix(1,0,0,1,14,15)" stroke="rgb(255,204,0)">
      <rect x="477.1749" width="48.1927" height="49.8828" y="170.8906" clip-path="url(#clipPath2)" stroke="none"/>
    </g>
    <g text-rendering="geometricPrecision" stroke-miterlimit="1.45" shape-rendering="geometricPrecision" transform="matrix(1,0,0,1,14,15)" stroke-linecap="butt">
      <rect fill="none" x="477.1749" width="48.1927" height="49.8828" y="170.8906" clip-path="url(#clipPath2)"/>
      <text x="493.6453" xml:space="preserve" y="199.9863" clip-path="url(#clipPath2)" font-family="sans-serif" stroke="none">S3</text>
      <path fill="none" d="M169.9102 424.9775 L169.9102 228.7734" clip-path="url(#clipPath2)"/>
      <path d="M169.9102 220.7734 L164.9102 232.7734 L169.9102 229.7734 L174.9102 232.7734 Z" clip-path="url(#clipPath2)" stroke="none"/>
      <text x="116.8243" xml:space="preserve" y="327.8379" clip-path="url(#clipPath2)" font-family="sans-serif" stroke="none">MQTT Connection</text>
      <path fill="none" d="M153.8459 220.7734 L153.8459 230.7734 L104.5764 230.7734 L104.5764 278.7422 L87.7758 278.7422 L87.7758 285.7129" clip-path="url(#clipPath2)"/>
      <path d="M87.7758 293.7129 L92.7758 281.7129 L87.7758 284.7129 L82.7758 281.7129 Z" clip-path="url(#clipPath2)" stroke="none"/>
      <rect x="108.3147" y="221.7891" clip-path="url(#clipPath2)" fill="white" width="41.793" height="17.9688" stroke="none"/>
      <text x="110.3147" xml:space="preserve" y="234.9277" clip-path="url(#clipPath2)" font-family="sans-serif" stroke="none">Action</text>
      <path fill="none" d="M185.9744 220.7734 L185.9744 230.7734 L241.0606 230.7734 L241.0606 368.625 L232.7022 368.625 L232.7022 416.9998" clip-path="url(#clipPath2)"/>
      <path d="M232.7022 424.9998 L237.7022 412.9998 L232.7022 415.9998 L227.7022 412.9998 Z" clip-path="url(#clipPath2)" stroke="none"/>
      <path fill="none" d="M368.5544 542.3438 L368.5544 508.9531 L501.2713 508.9531 L501.2713 228.7734" clip-path="url(#clipPath2)"/>
      <path d="M501.2713 220.7734 L496.2713 232.7734 L501.2713 229.7734 L506.2713 232.7734 Z" clip-path="url(#clipPath2)" stroke="none"/>
      <text x="461.8142" xml:space="preserve" y="449.1816" clip-path="url(#clipPath2)" font-family="sans-serif" stroke="none">Photo upload</text>
    </g>
    <g fill="rgb(245,245,245)" text-rendering="geometricPrecision" shape-rendering="geometricPrecision" transform="matrix(1,0,0,1,14,15)" stroke="rgb(245,245,245)">
      <rect x="1.6483" y="0" clip-path="url(#clipPath2)" width="279.6468" rx="4" ry="4" height="81.4609" stroke="none"/>
      <rect x="1.6483" y="0" clip-path="url(#clipPath2)" fill="rgb(235,235,235)" width="279.6468" height="21.4609" stroke="none"/>
    </g>
    <g font-size="15px" stroke-linecap="butt" transform="matrix(1,0,0,1,14,15)" text-rendering="geometricPrecision" font-family="sans-serif" shape-rendering="geometricPrecision" stroke-miterlimit="1.45">
      <text x="128.9655" xml:space="preserve" y="15.9233" clip-path="url(#clipPath2)" stroke="none">Web site pub.me.uk</text>
      <rect x="1.6483" y="0" clip-path="url(#clipPath2)" fill="none" width="279.6468" stroke-dasharray="6,2" rx="4" ry="4" height="81.4609"/>
    </g>
    <g fill="rgb(255,204,0)" text-rendering="geometricPrecision" shape-rendering="geometricPrecision" transform="matrix(1,0,0,1,14,15)" stroke="rgb(255,204,0)">
      <path d="M26.0546 36.461 L110.7109 36.461 L101.3046 66.461 L16.6484 66.461 Z" fill-rule="evenodd" clip-path="url(#clipPath2)" stroke="none"/>
    </g>
    <g text-rendering="geometricPrecision" stroke-miterlimit="1.45" shape-rendering="geometricPrecision" transform="matrix(1,0,0,1,14,15)" stroke-linecap="butt">
      <path fill="none" d="M26.0546 36.461 L110.7109 36.461 L101.3046 66.461 L16.6484 66.461 Z" fill-rule="evenodd" clip-path="url(#clipPath2)"/>
      <text x="27.4892" xml:space="preserve" y="55.6152" clip-path="url(#clipPath2)" font-family="sans-serif" stroke="none">confirm.php</text>
    </g>
    <g fill="rgb(255,204,0)" text-rendering="geometricPrecision" shape-rendering="geometricPrecision" transform="matrix(1,0,0,1,14,15)" stroke="rgb(255,204,0)">
      <path d="M140.711 36.461 L253.7366 36.461 L266.295 66.461 L153.2694 66.461 Z" fill-rule="evenodd" clip-path="url(#clipPath2)" stroke="none"/>
    </g>
    <g text-rendering="geometricPrecision" stroke-miterlimit="1.45" shape-rendering="geometricPrecision" transform="matrix(1,0,0,1,14,15)" stroke-linecap="butt">
      <path fill="none" d="M140.711 36.461 L253.7366 36.461 L266.295 66.461 L153.2694 66.461 Z" fill-rule="evenodd" clip-path="url(#clipPath2)"/>
      <text x="160.8907" xml:space="preserve" y="55.6152" clip-path="url(#clipPath2)" font-family="sans-serif" stroke="none">AWS IOT Page</text>
      <path fill="none" d="M63.6795 293.7144 L63.6796 74.4887" clip-path="url(#clipPath2)"/>
      <path d="M63.6796 66.4887 L58.6796 78.4887 L63.6796 75.4887 L68.6796 78.4887 Z" clip-path="url(#clipPath2)" stroke="none"/>
      <path fill="none" d="M501.2713 170.8518 L501.2713 91.4609 L234.899 91.4609 L234.899 74.5098" clip-path="url(#clipPath2)"/>
      <path d="M234.899 66.5098 L229.899 78.5098 L234.899 75.5098 L239.899 78.5098 Z" clip-path="url(#clipPath2)" stroke="none"/>
      <path fill="none" d="M172.107 66.5098 L172.107 91.4609 L169.9102 91.4609 L169.9102 162.8518" clip-path="url(#clipPath2)"/>
      <path d="M169.9102 170.8518 L174.9102 158.8518 L169.9102 161.8518 L164.9102 158.8518 Z" clip-path="url(#clipPath2)" stroke="none"/>
      <text x="100.2715" xml:space="preserve" y="124.5996" clip-path="url(#clipPath2)" font-family="sans-serif" stroke="none">Trigger camera actions</text>
    </g>
  </g>
</svg>
